
            <svg id="trend-chart" width="660" height="400" title="Stack Overflow Trends Chart" version="1.1" xmlns="http://www.w3.org/2000/svg"><g></g><g class="chart-area" transform="translate(100, 20)"><g transform="translate(0,300)" fill="none" font-size="10" font-family="sans-serif" text-anchor="middle"><path class="domain" stroke="#000" d="M0.5,6V0.5H410.5V6"></path><g class="tick" opacity="1" transform="translate(14.833679731287122,0)"><line stroke="#000" y2="6" x1="0.5" x2="0.5"></line><text fill="#000" y="9" x="0.5" dy="0.71em" style="font-size: 12px;">2009</text></g><g class="tick" opacity="1" transform="translate(50.2115818402104,0)"><line stroke="#000" y2="6" x1="0.5" x2="0.5"></line><text fill="#000" y="9" x="0.5" dy="0.71em" style="font-size: 12px;">2010</text></g><g class="tick" opacity="1" transform="translate(85.58948394913368,0)"><line stroke="#000" y2="6" x1="0.5" x2="0.5"></line><text fill="#000" y="9" x="0.5" dy="0.71em" style="font-size: 12px;">2011</text></g><g class="tick" opacity="1" transform="translate(120.96738605805696,0)"><line stroke="#000" y2="6" x1="0.5" x2="0.5"></line><text fill="#000" y="9" x="0.5" dy="0.71em" style="font-size: 12px;">2012</text></g><g class="tick" opacity="1" transform="translate(156.44221392618277,0)"><line stroke="#000" y2="6" x1="0.5" x2="0.5"></line><text fill="#000" y="9" x="0.5" dy="0.71em" style="font-size: 12px;">2013</text></g><g class="tick" opacity="1" transform="translate(191.82011603510603,0)"><line stroke="#000" y2="6" x1="0.5" x2="0.5"></line><text fill="#000" y="9" x="0.5" dy="0.71em" style="font-size: 12px;">2014</text></g><g class="tick" opacity="1" transform="translate(227.19801814402933,0)"><line stroke="#000" y2="6" x1="0.5" x2="0.5"></line><text fill="#000" y="9" x="0.5" dy="0.71em" style="font-size: 12px;">2015</text></g><g class="tick" opacity="1" transform="translate(262.5759202529526,0)"><line stroke="#000" y2="6" x1="0.5" x2="0.5"></line><text fill="#000" y="9" x="0.5" dy="0.71em" style="font-size: 12px;">2016</text></g><g class="tick" opacity="1" transform="translate(298.0507481210784,0)"><line stroke="#000" y2="6" x1="0.5" x2="0.5"></line><text fill="#000" y="9" x="0.5" dy="0.71em" style="font-size: 12px;">2017</text></g><g class="tick" opacity="1" transform="translate(333.42865023000167,0)"><line stroke="#000" y2="6" x1="0.5" x2="0.5"></line><text fill="#000" y="9" x="0.5" dy="0.71em" style="font-size: 12px;">2018</text></g><g class="tick" opacity="1" transform="translate(368.806552338925,0)"><line stroke="#000" y2="6" x1="0.5" x2="0.5"></line><text fill="#000" y="9" x="0.5" dy="0.71em" style="font-size: 12px;">2019</text></g><g class="tick" opacity="1" transform="translate(404.1844544478482,0)"><line stroke="#000" y2="6" x1="0.5" x2="0.5"></line><text fill="#000" y="9" x="0.5" dy="0.71em" style="font-size: 12px;">2020</text></g></g><g class="grid-lines" transform="translate(0,300)" fill="none" font-size="10" font-family="sans-serif" text-anchor="middle"><path class="domain" stroke="#000" d="M0.5,-300V0.5H410.5V-300"></path><g class="tick" opacity="1" transform="translate(14.833679731287122,0)"><line stroke="#000" y2="-300" x1="0.5" x2="0.5" style="stroke: #ccc; fill: none;"></line></g><g class="tick" opacity="1" transform="translate(50.2115818402104,0)"><line stroke="#000" y2="-300" x1="0.5" x2="0.5" style="stroke: #ccc; fill: none;"></line></g><g class="tick" opacity="1" transform="translate(85.58948394913368,0)"><line stroke="#000" y2="-300" x1="0.5" x2="0.5" style="stroke: #ccc; fill: none;"></line></g><g class="tick" opacity="1" transform="translate(120.96738605805696,0)"><line stroke="#000" y2="-300" x1="0.5" x2="0.5" style="stroke: #ccc; fill: none;"></line></g><g class="tick" opacity="1" transform="translate(156.44221392618277,0)"><line stroke="#000" y2="-300" x1="0.5" x2="0.5" style="stroke: #ccc; fill: none;"></line></g><g class="tick" opacity="1" transform="translate(191.82011603510603,0)"><line stroke="#000" y2="-300" x1="0.5" x2="0.5" style="stroke: #ccc; fill: none;"></line></g><g class="tick" opacity="1" transform="translate(227.19801814402933,0)"><line stroke="#000" y2="-300" x1="0.5" x2="0.5" style="stroke: #ccc; fill: none;"></line></g><g class="tick" opacity="1" transform="translate(262.5759202529526,0)"><line stroke="#000" y2="-300" x1="0.5" x2="0.5" style="stroke: #ccc; fill: none;"></line></g><g class="tick" opacity="1" transform="translate(298.0507481210784,0)"><line stroke="#000" y2="-300" x1="0.5" x2="0.5" style="stroke: #ccc; fill: none;"></line></g><g class="tick" opacity="1" transform="translate(333.42865023000167,0)"><line stroke="#000" y2="-300" x1="0.5" x2="0.5" style="stroke: #ccc; fill: none;"></line></g><g class="tick" opacity="1" transform="translate(368.806552338925,0)"><line stroke="#000" y2="-300" x1="0.5" x2="0.5" style="stroke: #ccc; fill: none;"></line></g><g class="tick" opacity="1" transform="translate(404.1844544478482,0)"><line stroke="#000" y2="-300" x1="0.5" x2="0.5" style="stroke: #ccc; fill: none;"></line></g></g><text x="205" y="360" class="axis-label x-axis-label" style="text-anchor: middle; font-weight: bold;">Year</text><g fill="none" font-size="10" font-family="sans-serif" text-anchor="end"><path class="domain" stroke="#000" d="M-6,300.5H0.5V0.5H-6"></path><g class="tick" opacity="1" transform="translate(0,300)"><line stroke="#000" x2="-6" y1="0.5" y2="0.5"></line><text fill="#000" x="-9" y="0.5" dy="0.32em" style="font-size: 12px;">0.00%</text></g><g class="tick" opacity="1" transform="translate(0,270)"><line stroke="#000" x2="-6" y1="0.5" y2="0.5"></line><text fill="#000" x="-9" y="0.5" dy="0.32em" style="font-size: 12px;">0.20%</text></g><g class="tick" opacity="1" transform="translate(0,240)"><line stroke="#000" x2="-6" y1="0.5" y2="0.5"></line><text fill="#000" x="-9" y="0.5" dy="0.32em" style="font-size: 12px;">0.40%</text></g><g class="tick" opacity="1" transform="translate(0,210)"><line stroke="#000" x2="-6" y1="0.5" y2="0.5"></line><text fill="#000" x="-9" y="0.5" dy="0.32em" style="font-size: 12px;">0.60%</text></g><g class="tick" opacity="1" transform="translate(0,180)"><line stroke="#000" x2="-6" y1="0.5" y2="0.5"></line><text fill="#000" x="-9" y="0.5" dy="0.32em" style="font-size: 12px;">0.80%</text></g><g class="tick" opacity="1" transform="translate(0,150)"><line stroke="#000" x2="-6" y1="0.5" y2="0.5"></line><text fill="#000" x="-9" y="0.5" dy="0.32em" style="font-size: 12px;">1.00%</text></g><g class="tick" opacity="1" transform="translate(0,120)"><line stroke="#000" x2="-6" y1="0.5" y2="0.5"></line><text fill="#000" x="-9" y="0.5" dy="0.32em" style="font-size: 12px;">1.20%</text></g><g class="tick" opacity="1" transform="translate(0,90)"><line stroke="#000" x2="-6" y1="0.5" y2="0.5"></line><text fill="#000" x="-9" y="0.5" dy="0.32em" style="font-size: 12px;">1.40%</text></g><g class="tick" opacity="1" transform="translate(0,60)"><line stroke="#000" x2="-6" y1="0.5" y2="0.5"></line><text fill="#000" x="-9" y="0.5" dy="0.32em" style="font-size: 12px;">1.60%</text></g><g class="tick" opacity="1" transform="translate(0,30)"><line stroke="#000" x2="-6" y1="0.5" y2="0.5"></line><text fill="#000" x="-9" y="0.5" dy="0.32em" style="font-size: 12px;">1.80%</text></g><g class="tick" opacity="1" transform="translate(0,0)"><line stroke="#000" x2="-6" y1="0.5" y2="0.5"></line><text fill="#000" x="-9" y="0.5" dy="0.32em" style="font-size: 12px;">2.00%</text></g></g><g class="grid-lines" fill="none" font-size="10" font-family="sans-serif" text-anchor="end"><path class="domain" stroke="#000" d="M410,300.5H0.5V0.5H410"></path><g class="tick" opacity="1" transform="translate(0,300)"><line stroke="#000" x2="410" y1="0.5" y2="0.5" style="stroke: #ccc; fill: none;"></line></g><g class="tick" opacity="1" transform="translate(0,270)"><line stroke="#000" x2="410" y1="0.5" y2="0.5" style="stroke: #ccc; fill: none;"></line></g><g class="tick" opacity="1" transform="translate(0,240)"><line stroke="#000" x2="410" y1="0.5" y2="0.5" style="stroke: #ccc; fill: none;"></line></g><g class="tick" opacity="1" transform="translate(0,210)"><line stroke="#000" x2="410" y1="0.5" y2="0.5" style="stroke: #ccc; fill: none;"></line></g><g class="tick" opacity="1" transform="translate(0,180)"><line stroke="#000" x2="410" y1="0.5" y2="0.5" style="stroke: #ccc; fill: none;"></line></g><g class="tick" opacity="1" transform="translate(0,150)"><line stroke="#000" x2="410" y1="0.5" y2="0.5" style="stroke: #ccc; fill: none;"></line></g><g class="tick" opacity="1" transform="translate(0,120)"><line stroke="#000" x2="410" y1="0.5" y2="0.5" style="stroke: #ccc; fill: none;"></line></g><g class="tick" opacity="1" transform="translate(0,90)"><line stroke="#000" x2="410" y1="0.5" y2="0.5" style="stroke: #ccc; fill: none;"></line></g><g class="tick" opacity="1" transform="translate(0,60)"><line stroke="#000" x2="410" y1="0.5" y2="0.5" style="stroke: #ccc; fill: none;"></line></g><g class="tick" opacity="1" transform="translate(0,30)"><line stroke="#000" x2="410" y1="0.5" y2="0.5" style="stroke: #ccc; fill: none;"></line></g><g class="tick" opacity="1" transform="translate(0,0)"><line stroke="#000" x2="410" y1="0.5" y2="0.5" style="stroke: #ccc; fill: none;"></line></g></g><g class="lines"><path class="line" d="M3.0046985352784152,300L5.9124713113543015,300L8.921208419932823,300L11.828981196008707,300L14.833679731287122,300L17.838378266565538,300L20.552299524236364,300L23.552959486214675,300L26.46073226229056,300L29.465430797568978,300L32.373203573644865,300L35.37790210892327,300L38.38260064420169,300L41.29037342027758,300L44.2991105288561,300L47.206883304931985,300L50.2115818402104,300L53.21628037548881,300L55.93020163315965,300L58.930861595137955,300L61.838634371213836,300L64.84333290649225,300L67.75110568256814,300L70.75580421784655,300L73.76050275312497,300L76.66827552920086,300L79.67701263777938,300L82.58478541385526,300L85.58948394913368,300L88.5941824844121,300L91.30810374208292,300L94.30876370406122,300L97.21653648013712,300L100.22123501541553,300L103.12900779149142,300L106.13370632676984,300L109.13840486204825,300L112.04617763812414,300L115.05491474670265,300L117.96268752277855,300L120.96738605805696,300L123.97208459333537,300L126.78293161020872,300L129.78359157218702,300L132.69136434826294,300L135.69606288354134,300L138.60383565961723,300L141.60853419489564,300L144.61323273017405,300L147.52100550624994,300L150.52974261482845,300L153.43751539090437,300L156.44221392618277,300L159.44691246146118,300L162.160833719132,300L165.16149368111033,300L168.06926645718622,300L171.07396499246462,300L173.98173776854048,300L176.98643630381892,300L179.99113483909733,300L182.89890761517321,299.9187141666L185.90764472375176,300L188.81541749982762,300L191.82011603510603,300L194.82481457038446,300L197.53873582805528,300L200.53939579003358,300L203.44716856610947,300L206.45186710138788,299.9079760248L209.35963987746376,300L212.3643384127422,299.90841428505L215.3690369480206,300L218.2768097240965,300L221.285546832675,300L224.19331960875087,300L227.19801814402933,300L230.20271667930774,300L232.91663793697853,300L235.9172978989569,299.92075986015L238.82507067503275,300L241.82976921031116,300L244.73754198638704,300L247.74224052166545,300L250.74693905694392,300L253.65471183301977,300L256.6634489415983,299.66206512015L259.5712217176742,300L262.5759202529526,300L265.580618788231,299.9199906123L268.39146580510436,300L271.3921257670827,300L274.2998985431585,300L277.304597078437,299.91819550185L280.2123698545129,299.91473397L283.2170683897913,300L286.2217669250697,299.9120033322L289.1295397011456,300L292.1382768097241,299.6554001667L295.0460495858,298.324760658L298.0507481210784,298.12040781465L301.0554466563568,298.96557669105L303.76936791402767,298.8760958067L306.77002787600594,297.88695490485L309.6778006520818,292.39112837955L312.68249918736024,292.2934039443L315.5902719634361,293.19617417805L318.5949704987146,292.25479181565L321.599669033993,292.827646164L324.5074418100688,291.5684963523L327.51617891864737,292.13700670155L330.42395169472326,291.27780200625L333.42865023000167,291.7111980459L336.4333487652801,289.74109415190003L339.1472700229509,260.074783338L342.14792998492925,253.8824871225L345.05570276100514,243.55207156095L348.06040129628354,238.0088400243L350.9681740723594,231.18483412335002L353.97287260763784,222.0145293225L356.97757114291625,215.63636870505002L359.88534391899213,218.419519164L362.8940810275706,221.1272895555L365.8018538036465,187.11526924515L368.806552338925,163.5134771616L371.8112508742034,166.58025758144998L374.52517213187417,165.99884127315L377.5258320938525,162.14724984195L380.4336048699284,146.05254194954998L383.4383034052068,143.1016022454L386.3460761812827,127.36115682795L389.3507747165611,95.32644656865L392.3554732518395,98.16936236789999L395.26324602791544,117.50494783065L398.27198313649393,114.8850683727L401.1797559125698,63.8965327464L404.1844544478482,65.37673893089996L407.18915298312663,73.17450277604999L410,60.634796811449974" data-legend="flutter" style="stroke: rgb(31, 119, 180); fill: none;"></path><path class="line" d="M3.0046985352784152,300L5.9124713113543015,300L8.921208419932823,300L11.828981196008707,300L14.833679731287122,300L17.838378266565538,300L20.552299524236364,300L23.552959486214675,300L26.46073226229056,300L29.465430797568978,300L32.373203573644865,300L35.37790210892327,300L38.38260064420169,300L41.29037342027758,300L44.2991105288561,300L47.206883304931985,300L50.2115818402104,300L53.21628037548881,300L55.93020163315965,300L58.930861595137955,300L61.838634371213836,300L64.84333290649225,300L67.75110568256814,300L70.75580421784655,300L73.76050275312497,300L76.66827552920086,300L79.67701263777938,300L82.58478541385526,300L85.58948394913368,300L88.5941824844121,300L91.30810374208292,300L94.30876370406122,300L97.21653648013712,300L100.22123501541553,300L103.12900779149142,300L106.13370632676984,300L109.13840486204825,300L112.04617763812414,300L115.05491474670265,300L117.96268752277855,300L120.96738605805696,300L123.97208459333537,300L126.78293161020872,300L129.78359157218702,300L132.69136434826294,300L135.69606288354134,300L138.60383565961723,300L141.60853419489564,300L144.61323273017405,300L147.52100550624994,300L150.52974261482845,300L153.43751539090437,300L156.44221392618277,300L159.44691246146118,300L162.160833719132,300L165.16149368111033,300L168.06926645718622,300L171.07396499246462,300L173.98173776854048,300L176.98643630381892,300L179.99113483909733,300L182.89890761517321,300L185.90764472375176,300L188.81541749982762,300L191.82011603510603,300L194.82481457038446,300L197.53873582805528,300L200.53939579003358,300L203.44716856610947,300L206.45186710138788,300L209.35963987746376,300L212.3643384127422,300L215.3690369480206,300L218.2768097240965,300L221.285546832675,300L224.19331960875087,300L227.19801814402933,300L230.20271667930774,300L232.91663793697853,294.69637400865L235.9172978989569,290.8873839132L238.82507067503275,291.4116261735L241.82976921031116,293.8331259912L244.73754198638704,292.45511563695L247.74224052166545,292.20119802885L250.74693905694392,285.43894799235L253.65471183301977,279.8876725164L256.6634489415983,271.69795380435L259.5712217176742,268.22625698325L262.5759202529526,268.0686523974L265.580618788231,265.59596325975L268.39146580510436,264.0436559355L271.3921257670827,264.6029451576L274.2998985431585,254.3971348986L277.304597078437,253.1260225563L280.2123698545129,243.042291951L283.2170683897913,239.1138700764L286.2217669250697,244.3861059129L289.1295397011456,248.9517753534L292.1382768097241,246.7593257331L295.0460495858,240.8082099138L298.0507481210784,232.50555334065L301.0554466563568,235.7795528994L303.76936791402767,222.45061065465L306.77002787600594,218.69002473675L309.6778006520818,208.85543143934999L312.68249918736024,202.1008237308L315.5902719634361,193.40672878785L318.5949704987146,193.6948898649L321.599669033993,190.9243332195L324.5074418100688,183.9115076712L327.51617891864737,180.17870439314999L330.42395169472326,174.35881461180003L333.42865023000167,162.5754312375L336.4333487652801,178.5700663542L339.1472700229509,170.70170533980001L342.14792998492925,164.34384820905L345.05570276100514,159.6015581793L348.06040129628354,153.395313612L350.9681740723594,145.4976303318L353.97287260763784,151.8466730649L356.97757114291625,130.122799437L359.88534391899213,143.41810936305L362.8940810275706,151.30884434055002L365.8018538036465,136.9949044296L368.806552338925,122.55743261429998L371.8112508742034,122.5527712629L374.52517213187417,135.5355374064L377.5258320938525,133.00764411749998L380.4336048699284,136.17538203045L383.4383034052068,115.44719052720001L386.3460761812827,108.88846009785001L389.3507747165611,90.86670757409999L392.3554732518395,106.96929171615L395.26324602791544,107.41305554474997L398.27198313649393,110.14295321699998L401.1797559125698,109.34960665620002L404.1844544478482,97.68377939415001L407.18915298312663,98.82634057215L410,116.43548426429999" data-legend="react-native" style="stroke: rgb(255, 127, 14); fill: none;"></path><path class="line" d="M3.0046985352784152,300L5.9124713113543015,300L8.921208419932823,300L11.828981196008707,300L14.833679731287122,300L17.838378266565538,300L20.552299524236364,300L23.552959486214675,300L26.46073226229056,300L29.465430797568978,300L32.373203573644865,300L35.37790210892327,300L38.38260064420169,300L41.29037342027758,300L44.2991105288561,300L47.206883304931985,300L50.2115818402104,300L53.21628037548881,300L55.93020163315965,300L58.930861595137955,300L61.838634371213836,300L64.84333290649225,300L67.75110568256814,300L70.75580421784655,300L73.76050275312497,300L76.66827552920086,300L79.67701263777938,300L82.58478541385526,300L85.58948394913368,300L88.5941824844121,300L91.30810374208292,300L94.30876370406122,300L97.21653648013712,300L100.22123501541553,300L103.12900779149142,300L106.13370632676984,300L109.13840486204825,300L112.04617763812414,300L115.05491474670265,300L117.96268752277855,300L120.96738605805696,300L123.97208459333537,300L126.78293161020872,300L129.78359157218702,300L132.69136434826294,300L135.69606288354134,300L138.60383565961723,300L141.60853419489564,300L144.61323273017405,300L147.52100550624994,300L150.52974261482845,300L153.43751539090437,300L156.44221392618277,300L159.44691246146118,300L162.160833719132,300L165.16149368111033,300L168.06926645718622,300L171.07396499246462,300L173.98173776854048,300L176.98643630381892,300L179.99113483909733,300L182.89890761517321,300L185.90764472375176,300L188.81541749982762,300L191.82011603510603,299.52407392725L194.82481457038446,299.2029289704L197.53873582805528,297.6944469795L200.53939579003358,296.07706390035L203.44716856610947,295.58623811685L206.45186710138788,292.9141539009L209.35963987746376,292.1435007885L212.3643384127422,287.0864141751L215.3690369480206,285.30163215015L218.2768097240965,283.62010191945L221.285546832675,280.9310218695L224.19331960875087,281.19164587575L227.19801814402933,283.0116388347L230.20271667930774,281.6958838062L232.91663793697853,279.65624059995L235.9172978989569,276.54491859405L238.82507067503275,265.4034375102L241.82976921031116,265.7217912234L244.73754198638704,267.741769917L247.74224052166545,262.00158188475L250.74693905694392,268.1688630528L253.65471183301977,268.98339857955L256.6634489415983,269.1634422048L259.5712217176742,267.17877094979997L262.5759202529526,252.1029785961L265.580618788231,239.0328465207L268.39146580510436,238.47802252575L271.3921257670827,235.56510146655L274.2998985431585,236.17190608845L277.304597078437,238.4012128881L280.2123698545129,234.51568894964998L283.2170683897913,231.1396975353L286.2217669250697,236.818392477L289.1295397011456,231.39049739745002L292.1382768097241,234.61218160425L295.0460495858,236.52704270625003L298.0507481210784,241.98895027635L301.0554466563568,242.58950635035L303.76936791402767,247.7759184795L306.77002787600594,244.5536967021L309.6778006520818,243.58102638825L312.68249918736024,238.77067089735L315.5902719634361,233.22170952435L318.5949704987146,238.9745684814L321.599669033993,236.84602726125001L324.5074418100688,238.13938902675L327.51617891864737,236.38123603875L330.42395169472326,234.7911864267L333.42865023000167,238.49332186305L336.4333487652801,240.22214476905L339.1472700229509,241.55367626505L342.14792998492925,235.28671580085L345.05570276100514,243.37172674155L348.06040129628354,241.43647130265L350.9681740723594,246.44549763045L353.97287260763784,238.88913605835L356.97757114291625,243.86211895245L359.88534391899213,242.9500554522L362.8940810275706,251.5093795482L365.8018538036465,250.79091454485L368.806552338925,241.99574971754998L371.8112508742034,246.7143973995L374.52517213187417,246.64249537455L377.5258320938525,245.5141100064L380.4336048699284,251.03994005595L383.4383034052068,247.73221152945L386.3460761812827,246.62497304295L389.3507747165611,245.7240275556L392.3554732518395,250.13373369345L395.26324602791544,252.31580894939998L398.27198313649393,251.88908623755L401.1797559125698,255.03253585425L404.1844544478482,256.21778123025L407.18915298312663,256.51486401015L410,252.3902391459" data-legend="ionic-framework" style="stroke: rgb(44, 160, 44); fill: none;"></path><path class="line" d="M3.0046985352784152,300L5.9124713113543015,300L8.921208419932823,300L11.828981196008707,300L14.833679731287122,300L17.838378266565538,300L20.552299524236364,300L23.552959486214675,300L26.46073226229056,300L29.465430797568978,300L32.373203573644865,300L35.37790210892327,300L38.38260064420169,300L41.29037342027758,300L44.2991105288561,300L47.206883304931985,300L50.2115818402104,300L53.21628037548881,300L55.93020163315965,300L58.930861595137955,300L61.838634371213836,300L64.84333290649225,300L67.75110568256814,300L70.75580421784655,300L73.76050275312497,300L76.66827552920086,300L79.67701263777938,300L82.58478541385526,300L85.58948394913368,300L88.5941824844121,300L91.30810374208292,300L94.30876370406122,300L97.21653648013712,300L100.22123501541553,300L103.12900779149142,300L106.13370632676984,300L109.13840486204825,300L112.04617763812414,300L115.05491474670265,300L117.96268752277855,300L120.96738605805696,300L123.97208459333537,300L126.78293161020872,300L129.78359157218702,300L132.69136434826294,300L135.69606288354134,300L138.60383565961723,300L141.60853419489564,300L144.61323273017405,300L147.52100550624994,300L150.52974261482845,300L153.43751539090437,300L156.44221392618277,300L159.44691246146118,300L162.160833719132,300L165.16149368111033,300L168.06926645718622,300L171.07396499246462,300L173.98173776854048,300L176.98643630381892,300L179.99113483909733,300L182.89890761517321,300L185.90764472375176,300L188.81541749982762,300L191.82011603510603,300L194.82481457038446,300L197.53873582805528,300L200.53939579003358,300L203.44716856610947,300L206.45186710138788,300L209.35963987746376,300L212.3643384127422,300L215.3690369480206,300L218.2768097240965,300L221.285546832675,300L224.19331960875087,300L227.19801814402933,300L230.20271667930774,300L232.91663793697853,299.2084140312L235.9172978989569,299.52455916075L238.82507067503275,298.5415968975L241.82976921031116,298.71857163465L244.73754198638704,298.6911935289L247.74224052166545,299.00440825905L250.74693905694392,299.2380844881L253.65471183301977,298.626869208L256.6634489415983,298.7327442003L259.5712217176742,298.51606145265L262.5759202529526,298.170599877L265.580618788231,298.1597840814L268.39146580510436,296.9351141235L271.3921257670827,293.48755484505L274.2998985431585,292.59848786325L277.304597078437,291.08330970105L280.2123698545129,288.83015006835L283.2170683897913,289.78309143165L286.2217669250697,290.76034987485L289.1295397011456,287.25946501245L292.1382768097241,288.3697556214L295.0460495858,288.1802557533L298.0507481210784,291.3709631487L301.0554466563568,291.8970174129L303.76936791402767,293.70613651695L306.77002787600594,293.82990832215L309.6778006520818,292.39112837955L312.68249918736024,293.47903410675L315.5902719634361,294.2881462236L318.5949704987146,291.74411874855L321.599669033993,290.49895985355L324.5074418100688,292.9885390719L327.51617891864737,293.8346984364L330.42395169472326,293.56218719505L333.42865023000167,293.9717803971L336.4333487652801,293.19361054305L339.1472700229509,293.70981269235L342.14792998492925,292.0967971884L345.05570276100514,293.23706927655L348.06040129628354,292.16541422115L350.9681740723594,291.0900473934L353.97287260763784,290.6569974006L356.97757114291625,290.06871750555L359.88534391899213,282.70644185055L362.8940810275706,276.76071924405L365.8018538036465,279.9518540739L368.806552338925,279.6228546834L371.8112508742034,276.95757725385L374.52517213187417,281.96497654515L377.5258320938525,282.93005345145L380.4336048699284,282.5446742808L383.4383034052068,282.51404894805L386.3460761812827,281.1016650966L389.3507747165611,283.7741411049L392.3554732518395,283.8194847468L395.26324602791544,283.3483777284L398.27198313649393,285.94609508385L401.1797559125698,287.3741461362L404.1844544478482,286.14151542975L407.18915298312663,286.99838358285L410,288.2986762878" data-legend="nativescript" style="stroke: rgb(214, 39, 40); fill: none;"></path><path class="line" d="M3.0046985352784152,300L5.9124713113543015,300L8.921208419932823,300L11.828981196008707,300L14.833679731287122,300L17.838378266565538,300L20.552299524236364,300L23.552959486214675,300L26.46073226229056,300L29.465430797568978,299.4647063022L32.373203573644865,300L35.37790210892327,300L38.38260064420169,299.0832976839L41.29037342027758,300L44.2991105288561,300L47.206883304931985,300L50.2115818402104,299.66385801375L53.21628037548881,299.66282284725L55.93020163315965,299.42186506335L58.930861595137955,298.4916133704L61.838634371213836,299.41918996365L64.84333290649225,298.64630712585L67.75110568256814,298.75953093735L70.75580421784655,298.57869302940003L73.76050275312497,298.5208316214L76.66827552920086,297.87264217845L79.67701263777938,297.40244747175L82.58478541385526,298.26607135125L85.58948394913368,296.79945779055L88.5941824844121,297.0954859011L91.30810374208292,294.33500964045L94.30876370406122,293.56122075075L97.21653648013712,295.35923512215L100.22123501541553,293.49004329885L103.12900779149142,295.8258380625L106.13370632676984,296.22243778695L109.13840486204825,296.4720063504L112.04617763812414,298.2243792726L115.05491474670265,297.10703953725L117.96268752277855,293.49548056365L120.96738605805696,295.48441478025L123.97208459333537,295.4090015787L126.78293161020872,297.1991724489L129.78359157218702,297.21528191415L132.69136434826294,297.54657784785L135.69606288354134,296.33094844995003L138.60383565961723,296.61368494575L141.60853419489564,296.38438906814997L144.61323273017405,297.49673817405L147.52100550624994,297.69026833065L150.52974261482845,298.06851682425L153.43751539090437,297.10997650935L156.44221392618277,296.8543867008L159.44691246146118,298.73304225795L162.160833719132,297.9325197417L165.16149368111033,297.81640317945L168.06926645718622,298.56115107915L171.07396499246462,296.9680316841L173.98173776854048,298.4726865444L176.98643630381892,297.8847295098L179.99113483909733,297.82825083705L182.89890761517321,297.3988533279L185.90764472375176,297.11262462435L188.81541749982762,298.00823263845L191.82011603510603,297.69969064815L194.82481457038446,298.24644373485L197.53873582805528,298.1267381709L200.53939579003358,297.84623116095L203.44716856610947,297.7082390223L206.45186710138788,298.527616395L209.35963987746376,298.7328227079L212.3643384127422,297.6187714083L215.3690369480206,298.28669331825L218.2768097240965,296.79335328585L221.285546832675,298.11109178895L224.19331960875087,298.74610972515L227.19801814402933,298.46381840535L230.20271667930774,298.4820976815L232.91663793697853,297.86271788415L235.9172978989569,298.25671692255L238.82507067503275,298.2985297137L241.82976921031116,298.23803599755L244.73754198638704,298.15227321735L247.74224052166545,298.0917824964L250.74693905694392,297.88356802215L253.65471183301977,297.5768280141L256.6634489415983,298.1413581603L259.5712217176742,297.20670391065L262.5759202529526,287.77628099595L265.580618788231,285.99835714065L268.39146580510436,287.66570317965L271.3921257670827,290.039789763L274.2998985431585,290.1313171509L277.304597078437,291.6559411881L280.2123698545129,293.09345156895L283.2170683897913,293.77017770235L286.2217669250697,294.36821325705L289.1295397011456,294.5766641607L292.1382768097241,295.26175229025L295.0460495858,295.53269508795L298.0507481210784,296.24081562915L301.0554466563568,295.94850870645L303.76936791402767,296.17872574245L306.77002787600594,296.0274752211L309.6778006520818,297.08596406025L312.68249918736024,296.69717311905L315.5902719634361,295.88410536705L318.5949704987146,296.595512886L321.599669033993,295.34262737925L324.5074418100688,297.33741990075L327.51617891864737,297.0513775131L330.42395169472326,298.442464644L333.42865023000167,298.21037230545L336.4333487652801,297.82984683990003L339.1472700229509,298.60218059835L342.14792998492925,298.14042286785L345.05570276100514,299.0081034939L348.06040129628354,298.72687981095L350.9681740723594,298.57819905225L353.97287260763784,298.4746118205L356.97757114291625,298.7455222113L359.88534391899213,298.59019906395L362.8940810275706,299.09457347715L365.8018538036465,298.86090079965L368.806552338925,298.8903534729L371.8112508742034,298.354112661L374.52517213187417,298.97209710885L377.5258320938525,299.39651704125L380.4336048699284,299.14852069665L383.4383034052068,299.6198706294L386.3460761812827,299.82974473065L389.3507747165611,299.8102238727L392.3554732518395,299.8107542076L395.26324602791544,299.5795044882L398.27198313649393,299.91377972445L401.1797559125698,299.61151218885L404.1844544478482,299.55864698835L407.18915298312663,299.91215124045L410,299.63433363405" data-legend="appcelerator" style="stroke: rgb(148, 103, 189); fill: none;"></path><path class="line" d="M3.0046985352784152,300L5.9124713113543015,300L8.921208419932823,300L11.828981196008707,300L14.833679731287122,299.04665056575L17.838378266565538,300L20.552299524236364,300L23.552959486214675,299.29081367325L26.46073226229056,298.8263369979L29.465430797568978,298.9294126044L32.373203573644865,299.5330739301L35.37790210892327,300L38.38260064420169,300L41.29037342027758,300L44.2991105288561,299.21332109625L47.206883304931985,299.59950873075L50.2115818402104,298.65543205455L53.21628037548881,299.66282284725L55.93020163315965,297.68746025325L58.930861595137955,298.4916133704L61.838634371213836,297.9671648727L64.84333290649225,297.2926142517L67.75110568256814,294.54193612425L70.75580421784655,293.60411863185L73.76050275312497,293.8367984223L76.66827552920086,294.7997919918L79.67701263777938,295.0213576542L82.58478541385526,291.33035675595L85.58948394913368,290.9631749379L88.5941824844121,289.65266852235L91.30810374208292,290.01172752405L94.30876370406122,289.16400565365L97.21653648013712,281.5866425814L100.22123501541553,284.25498844365L103.12900779149142,277.48934097945L106.13370632676984,274.6763422005L109.13840486204825,270.1590537138L112.04617763812414,265.6713326034L115.05491474670265,258.39647334345L117.96268752277855,266.03195405415L120.96738605805696,244.909860318L123.97208459333537,245.02883469195L126.78293161020872,245.43987930315L129.78359157218702,249.64301461215L132.69136434826294,237.21469674225L135.69606288354134,235.1036507064L138.60383565961723,234.17850113235L141.60853419489564,235.8760767078L144.61323273017405,232.29814606920002L147.52100550624994,234.02201274704998L150.52974261482845,239.61573650505L153.43751539090437,244.42262517885L156.44221392618277,236.611125939L159.44691246146118,241.13519413695002L162.160833719132,245.47020818385L165.16149368111033,241.6542929514L168.06926645718622,234.4424460432L171.07396499246462,239.07638665185L173.98173776854048,231.52544673929998L176.98643630381892,234.69102361470001L179.99113483909733,229.32766265505L182.89890761517321,230.09418318585L185.90764472375176,235.79835929145L188.81541749982762,233.81900266785L191.82011603510603,235.51201713345L194.82481457038446,232.32866958225L197.53873582805528,226.00615774800002L200.53939579003358,233.69468788305L203.44716856610947,224.54164780455L206.45186710138788,221.96366893455L209.35963987746376,222.8711421492L212.3643384127422,225.90715650779998L215.3690369480206,226.32781267860003L218.2768097240965,231.1870948359L221.285546832675,227.68179991965L224.19331960875087,229.87859770065L227.19801814402933,227.79946504740002L230.20271667930774,237.49813982565001L232.91663793697853,234.14004738975L235.9172978989569,232.0912001184L238.82507067503275,223.0287251397L241.82976921031116,228.3201008058L244.73754198638704,228.40058716664998L247.74224052166545,232.1338296543L250.74693905694392,227.3640545193L253.65471183301977,228.27410921519999L256.6634489415983,232.58199145035002L259.5712217176742,233.13547486035L262.5759202529526,236.22045934575L265.580618788231,231.99202039710002L268.39146580510436,235.48788996315L271.3921257670827,235.48848446475L274.2998985431585,235.53521687235002L277.304597078437,237.0105364194L280.2123698545129,239.6316507504L283.2170683897913,236.95419834659998L286.2217669250697,240.8662391985L289.1295397011456,245.85272630235L292.1382768097241,241.07342848125L295.0460495858,241.45969188015L298.0507481210784,247.9694708664L301.0554466563568,252.4165277859L303.76936791402767,252.870950823L306.77002787600594,252.75231167145L309.6778006520818,258.15120608715L312.68249918736024,254.18386300905001L315.5902719634361,258.3370665711L318.5949704987146,257.358798897L321.599669033993,254.54404322055L324.5074418100688,258.6412557912L327.51617891864737,259.4341027551L330.42395169472326,260.2309305756L333.42865023000167,261.1933363056L336.4333487652801,268.3354925262L339.1472700229509,265.1418786693L342.14792998492925,268.75910417985L345.05570276100514,271.14482891295L348.06040129628354,271.10996494035L350.9681740723594,272.98578199065L353.97287260763784,273.4010436198L356.97757114291625,274.91044422465L359.88534391899213,272.2739149233L362.8940810275706,274.24564556925L365.8018538036465,277.78756559325L368.806552338925,276.092161188L371.8112508742034,277.1633131713L374.52517213187417,277.5730278282L377.5258320938525,275.2571986896L380.4336048699284,275.22195227175L383.4383034052068,275.3866232475L386.3460761812827,273.9509437818L389.3507747165611,272.38757345925L392.3554732518395,273.884080644L395.26324602791544,273.42468364725L398.27198313649393,274.99612008765L401.1797559125698,275.81663375325L404.1844544478482,277.49099639865L407.18915298312663,281.28821421045L410,280.9122156945" data-legend="cordova" style="stroke: rgb(140, 86, 75); fill: none;"></path><path class="line" d="M3.0046985352784152,300L5.9124713113543015,300L8.921208419932823,300L11.828981196008707,300L14.833679731287122,300L17.838378266565538,300L20.552299524236364,300L23.552959486214675,300L26.46073226229056,300L29.465430797568978,300L32.373203573644865,300L35.37790210892327,300L38.38260064420169,300L41.29037342027758,300L44.2991105288561,300L47.206883304931985,300L50.2115818402104,300L53.21628037548881,300L55.93020163315965,300L58.930861595137955,300L61.838634371213836,300L64.84333290649225,299.7292614252L67.75110568256814,300L70.75580421784655,300L73.76050275312497,300L76.66827552920086,300L79.67701263777938,300L82.58478541385526,300L85.58948394913368,300L88.5941824844121,300L91.30810374208292,299.55276391905L94.30876370406122,300L97.21653648013712,300L100.22123501541553,300L103.12900779149142,299.701845576L106.13370632676984,300L109.13840486204825,299.7060005292L112.04617763812414,299.85203160615L115.05491474670265,299.8622399781L117.96268752277855,299.85545512365L120.96738605805696,300L123.97208459333537,300L126.78293161020872,299.8879668981L129.78359157218702,300L132.69136434826294,299.5539232452L135.69606288354134,299.4267106953L138.60383565961723,299.36506592745L141.60853419489564,297.55414554615L144.61323273017405,297.7243074309L147.52100550624994,296.9873065182L150.52974261482845,297.86520280575L153.43751539090437,298.3326787554L156.44221392618277,298.37953254285L159.44691246146118,297.56354280375L162.160833719132,291.81622397715L165.16149368111033,289.78076687925L168.06926645718622,286.7805755397L171.07396499246462,283.4189232723L173.98173776854048,284.89656693885L176.98643630381892,286.4270143545L179.99113483909733,285.88363044075L182.89890761517321,285.69369330315L185.90764472375176,287.6012704452L188.81541749982762,286.5103028694L191.82011603510603,282.2320932816L194.82481457038446,282.62385155355L197.53873582805528,282.49220675055L200.53939579003358,284.0005743384L203.44716856610947,282.42983250345L206.45186710138788,276.44186232L209.35963987746376,274.23406172565L212.3643384127422,272.1579426186L215.3690369480206,268.88995761825L218.2768097240965,268.88686025955L221.285546832675,271.75632484425L224.19331960875087,274.9221945009L227.19801814402933,270.18000433755L230.20271667930774,269.01693502784997L232.91663793697853,268.89067142325L235.9172978989569,272.82063201945L238.82507067503275,272.2903410504L241.82976921031116,270.7674154125L244.73754198638704,267.818758533L247.74224052166545,264.9053911293L250.74693905694392,263.00476902675L253.65471183301977,264.62168900475L256.6634489415983,269.41689336465L259.5712217176742,271.8924581007L262.5759202529526,268.5675797037L265.580618788231,269.43641387265L268.39146580510436,264.79118907615L271.3921257670827,230.89146435525L274.2998985431585,231.63549542385L277.304597078437,234.9654239655L280.2123698545129,237.07366984995L283.2170683897913,231.05663323800002L286.2217669250697,241.65820920915L289.1295397011456,243.27018542655L292.1382768097241,238.144329897L295.0460495858,239.41217712870002L298.0507481210784,238.31520191385L301.0554466563568,237.5897936901L303.76936791402767,235.9374609756L306.77002787600594,237.79195239735L309.6778006520818,233.54379148455L312.68249918736024,230.64063549780002L315.5902719634361,230.19778693680001L318.5949704987146,233.69761345454998L321.599669033993,232.7475393549L324.5074418100688,238.0506363567L327.51617891864737,235.7557706628L330.42395169472326,230.53392312015L333.42865023000167,235.7617848555L336.4333487652801,242.78687123115L339.1472700229509,237.0107632095L342.14792998492925,237.79714492935L345.05570276100514,245.44569216345002L348.06040129628354,249.0751924371L350.9681740723594,242.84360189580002L353.97287260763784,242.03524917855L356.97757114291625,245.8483754514L359.88534391899213,249.15317957115L362.8940810275706,245.6744086224L365.8018538036465,250.33527486465L368.806552338925,248.04836713845L371.8112508742034,246.92013331695L374.52517213187417,252.15579270015002L377.5258320938525,259.56664176105L380.4336048699284,262.6200585819L383.4383034052068,256.8553164261L386.3460761812827,259.81975642155L389.3507747165611,256.44637875525L392.3554732518395,256.09497615509997L395.26324602791544,252.14761074465L398.27198313649393,256.9760824956L401.1797559125698,260.47136521095L404.1844544478482,258.3362756868L407.18915298312663,257.39335160595L410,257.8021013628" data-legend="xamarin" style="stroke: rgb(227, 119, 194); fill: none;"></path></g></g><g transform="translate(20, 150)"><text transform="rotate(-90)" x="-50" y="0" dy="1em" class="axis-label y-axis-label" style="text-anchor: middle; font-weight: bold;">% of Stack Overflow questions that month</text></g><g class="legend" transform="translate(530, 30)" style="font-size: 12px;"><text class="legend-title" style="font-weight: bold;">Tag</text><g class="legend-items" transform="translate(0,20)"><text y="0em" x="1em">flutter</text><text y="1em" x="1em">react-native</text><text y="2em" x="1em">cordova</text><text y="3em" x="1em">xamarin</text><text y="4em" x="1em">ionic-framework</text><text y="5em" x="1em">nativescript</text><text y="6em" x="1em">appcelerator</text><circle cy="-0.25em" cx="0" r="0.4em" style="fill: rgb(31, 119, 180);"></circle><circle cy="0.75em" cx="0" r="0.4em" style="fill: rgb(255, 127, 14);"></circle><circle cy="1.75em" cx="0" r="0.4em" style="fill: rgb(140, 86, 75);"></circle><circle cy="2.75em" cx="0" r="0.4em" style="fill: rgb(227, 119, 194);"></circle><circle cy="3.75em" cx="0" r="0.4em" style="fill: rgb(44, 160, 44);"></circle><circle cy="4.75em" cx="0" r="0.4em" style="fill: rgb(214, 39, 40);"></circle><circle cy="5.75em" cx="0" r="0.4em" style="fill: rgb(148, 103, 189);"></circle></g><rect class="legend-box"></rect></g></svg>
        